<?xml version="1.0" encoding="UTF-8" standalone="no"?>
<!-- Created with Inkscape (http://www.inkscape.org/) -->

<svg
   xmlns:dc="http://purl.org/dc/elements/1.1/"
   xmlns:cc="http://creativecommons.org/ns#"
   xmlns:rdf="http://www.w3.org/1999/02/22-rdf-syntax-ns#"
   xmlns:svg="http://www.w3.org/2000/svg"
   xmlns="http://www.w3.org/2000/svg"
   xmlns:sodipodi="http://sodipodi.sourceforge.net/DTD/sodipodi-0.dtd"
   xmlns:inkscape="http://www.inkscape.org/namespaces/inkscape"
   width="256"
   height="256"
   id="svg2"
   version="1.1"
   inkscape:version="0.48.2 r9819"
   sodipodi:docname="ctfeval_logo.svg"
   inkscape:export-filename="/extra/Movies/ctfeval/ctfeval_logo.png"
   inkscape:export-xdpi="180"
   inkscape:export-ydpi="180">
  <defs
     id="defs4">
    <filter
       inkscape:collect="always"
       id="filter3825">
      <feGaussianBlur
         inkscape:collect="always"
         stdDeviation="0.78760277"
         id="feGaussianBlur3827" />
    </filter>
    <filter
       inkscape:collect="always"
       id="filter3787">
      <feGaussianBlur
         inkscape:collect="always"
         stdDeviation="1.3680486"
         id="feGaussianBlur3789" />
    </filter>
  </defs>
  <sodipodi:namedview
     id="base"
     pagecolor="#ffffff"
     bordercolor="#666666"
     borderopacity="1.0"
     inkscape:pageopacity="0.0"
     inkscape:pageshadow="2"
     inkscape:zoom="1.979899"
     inkscape:cx="156.60342"
     inkscape:cy="99.890769"
     inkscape:document-units="px"
     inkscape:current-layer="layer1"
     showgrid="false"
     inkscape:window-width="1480"
     inkscape:window-height="1240"
     inkscape:window-x="293"
     inkscape:window-y="4"
     inkscape:window-maximized="0" />
  <metadata
     id="metadata7">
    <rdf:RDF>
      <cc:Work
         rdf:about="">
        <dc:format>image/svg+xml</dc:format>
        <dc:type
           rdf:resource="http://purl.org/dc/dcmitype/StillImage" />
        <dc:title></dc:title>
      </cc:Work>
    </rdf:RDF>
  </metadata>
  <g
     inkscape:label="Layer 1"
     inkscape:groupmode="layer"
     id="layer1"
     transform="translate(0,-796.36218)">
    <g
       id="g3828"
       transform="matrix(0.64681802,0,0,0.64681802,60.561838,309.15337)">
      <path
         sodipodi:type="arc"
         style="fill:#c8c8c8;fill-opacity:1;filter:url(#filter3787)"
         id="path3913"
         sodipodi:cx="88.640884"
         sodipodi:cy="79.980919"
         sodipodi:rx="40.658642"
         sodipodi:ry="40.658642"
         d="m 129.29953,79.980919 c 0,22.455151 -18.2035,40.658641 -40.658646,40.658641 -22.455147,0 -40.658641,-18.20349 -40.658641,-40.658641 0,-22.455148 18.203494,-40.658642 40.658641,-40.658642 22.455146,0 40.658646,18.203494 40.658646,40.658642 z"
         transform="matrix(4.5034822,0,0,4.5034822,-294.93123,590.93857)" />
      <g
         id="g3815">
        <path
           sodipodi:type="arc"
           style="fill:#ff8080;fill-opacity:1;filter:url(#filter3787)"
           id="path3911"
           sodipodi:cx="88.640884"
           sodipodi:cy="79.980919"
           sodipodi:rx="40.658642"
           sodipodi:ry="40.658642"
           d="m 129.29953,79.980919 c 0,22.455151 -18.2035,40.658641 -40.658646,40.658641 -22.455147,0 -40.658641,-18.20349 -40.658641,-40.658641 0,-22.455148 18.203494,-40.658642 40.658641,-40.658642 22.455146,0 40.658646,18.203494 40.658646,40.658642 z"
           transform="matrix(4.1713595,0,0,4.1713595,-265.49158,617.50205)" />
        <path
           transform="matrix(4.110823,0,0,4.110823,-260.12557,622.34381)"
           d="m 129.29953,79.980919 c 0,22.455151 -18.2035,40.658641 -40.658646,40.658641 -22.455147,0 -40.658641,-18.20349 -40.658641,-40.658641 0,-22.455148 18.203494,-40.658642 40.658641,-40.658642 22.455146,0 40.658646,18.203494 40.658646,40.658642 z"
           sodipodi:ry="40.658642"
           sodipodi:rx="40.658642"
           sodipodi:cy="79.980919"
           sodipodi:cx="88.640884"
           id="path3909"
           style="fill:#c8c8c8;fill-opacity:1;filter:url(#filter3787)"
           sodipodi:type="arc" />
        <path
           sodipodi:type="arc"
           style="fill:#ff8080;fill-opacity:1;filter:url(#filter3787)"
           id="path3907"
           sodipodi:cx="88.640884"
           sodipodi:cy="79.980919"
           sodipodi:rx="40.658642"
           sodipodi:ry="40.658642"
           d="m 129.29953,79.980919 c 0,22.455151 -18.2035,40.658641 -40.658646,40.658641 -22.455147,0 -40.658641,-18.20349 -40.658641,-40.658641 0,-22.455148 18.203494,-40.658642 40.658641,-40.658642 22.455146,0 40.658646,18.203494 40.658646,40.658642 z"
           transform="matrix(3.7727214,0,0,3.7727214,-230.15595,649.38549)" />
        <path
           transform="matrix(3.6761145,0,0,3.6761145,-221.59263,657.1122)"
           d="m 129.29953,79.980919 c 0,22.455151 -18.2035,40.658641 -40.658646,40.658641 -22.455147,0 -40.658641,-18.20349 -40.658641,-40.658641 0,-22.455148 18.203494,-40.658642 40.658641,-40.658642 22.455146,0 40.658646,18.203494 40.658646,40.658642 z"
           sodipodi:ry="40.658642"
           sodipodi:rx="40.658642"
           sodipodi:cy="79.980919"
           sodipodi:cx="88.640884"
           id="path3905"
           style="fill:#c8c8c8;fill-opacity:1;filter:url(#filter3787)"
           sodipodi:type="arc" />
        <path
           sodipodi:type="arc"
           style="fill:#ff8080;fill-opacity:1;filter:url(#filter3787)"
           id="path3903"
           sodipodi:cx="88.640884"
           sodipodi:cy="79.980919"
           sodipodi:rx="40.658642"
           sodipodi:ry="40.658642"
           d="m 129.29953,79.980919 c 0,22.455151 -18.2035,40.658641 -40.658646,40.658641 -22.455147,0 -40.658641,-18.20349 -40.658641,-40.658641 0,-22.455148 18.203494,-40.658642 40.658641,-40.658642 22.455146,0 40.658646,18.203494 40.658646,40.658642 z"
           transform="matrix(3.3269606,0,0,3.3269606,-190.64331,685.03785)" />
        <path
           transform="matrix(3.183324,0,0,3.183324,-177.91124,696.52604)"
           d="m 129.29953,79.980919 c 0,22.455151 -18.2035,40.658641 -40.658646,40.658641 -22.455147,0 -40.658641,-18.20349 -40.658641,-40.658641 0,-22.455148 18.203494,-40.658642 40.658641,-40.658642 22.455146,0 40.658646,18.203494 40.658646,40.658642 z"
           sodipodi:ry="40.658642"
           sodipodi:rx="40.658642"
           sodipodi:cy="79.980919"
           sodipodi:cx="88.640884"
           id="path3877"
           style="fill:#c8c8c8;fill-opacity:1;filter:url(#filter3787)"
           sodipodi:type="arc" />
        <path
           sodipodi:type="arc"
           style="fill:#ff8080;fill-opacity:1;filter:url(#filter3787)"
           id="path3875"
           sodipodi:cx="88.640884"
           sodipodi:cy="79.980919"
           sodipodi:rx="40.658642"
           sodipodi:ry="40.658642"
           d="m 129.29953,79.980919 c 0,22.455151 -18.2035,40.658641 -40.658646,40.658641 -22.455147,0 -40.658641,-18.20349 -40.658641,-40.658641 0,-22.455148 18.203494,-40.658642 40.658641,-40.658642 22.455146,0 40.658646,18.203494 40.658646,40.658642 z"
           transform="matrix(2.8115408,0,0,2.8115408,-144.95605,726.2616)" />
        <path
           transform="matrix(2.5988726,0,0,2.5988726,-126.10495,743.271)"
           d="m 129.29953,79.980919 c 0,22.455151 -18.2035,40.658641 -40.658646,40.658641 -22.455147,0 -40.658641,-18.20349 -40.658641,-40.658641 0,-22.455148 18.203494,-40.658642 40.658641,-40.658642 22.455146,0 40.658646,18.203494 40.658646,40.658642 z"
           sodipodi:ry="40.658642"
           sodipodi:rx="40.658642"
           sodipodi:cy="79.980919"
           sodipodi:cx="88.640884"
           id="path3873"
           style="fill:#c8c8c8;fill-opacity:1;filter:url(#filter3787)"
           sodipodi:type="arc" />
        <path
           sodipodi:type="arc"
           style="fill:#ff8080;fill-opacity:1;filter:url(#filter3787)"
           id="path3847"
           sodipodi:cx="88.640884"
           sodipodi:cy="79.980919"
           sodipodi:rx="40.658642"
           sodipodi:ry="40.658642"
           d="m 129.29953,79.980919 c 0,22.455151 -18.2035,40.658641 -40.658646,40.658641 -22.455147,0 -40.658641,-18.20349 -40.658641,-40.658641 0,-22.455148 18.203494,-40.658642 40.658641,-40.658642 22.455146,0 40.658646,18.203494 40.658646,40.658642 z"
           transform="matrix(2.2846784,0,0,2.2846784,-98.254499,768.40054)" />
        <path
           sodipodi:type="arc"
           style="fill:#c8c8c8;fill-opacity:1;filter:url(#filter3787)"
           id="path3859"
           sodipodi:cx="88.640884"
           sodipodi:cy="79.980919"
           sodipodi:rx="40.658642"
           sodipodi:ry="40.658642"
           d="m 129.29953,79.980919 c 0,22.455151 -18.2035,40.658641 -40.658646,40.658641 -22.455147,0 -40.658641,-18.20349 -40.658641,-40.658641 0,-22.455148 18.203494,-40.658642 40.658641,-40.658642 22.455146,0 40.658646,18.203494 40.658646,40.658642 z"
           transform="matrix(1.8375733,0,0,1.8375733,-58.622707,804.16041)" />
        <path
           transform="matrix(1.257086,0,0,1.257086,-7.1677997,850.58832)"
           d="m 129.29953,79.980919 c 0,22.455151 -18.2035,40.658641 -40.658646,40.658641 -22.455147,0 -40.658641,-18.20349 -40.658641,-40.658641 0,-22.455148 18.203494,-40.658642 40.658641,-40.658642 22.455146,0 40.658646,18.203494 40.658646,40.658642 z"
           sodipodi:ry="40.658642"
           sodipodi:rx="40.658642"
           sodipodi:cy="79.980919"
           sodipodi:cx="88.640884"
           id="path3849"
           style="fill:#ff8080;fill-opacity:1;filter:url(#filter3787)"
           sodipodi:type="arc" />
      </g>
    </g>
    <g
       id="g3803"
       transform="translate(-142.45181,-132.87566)">
      <g
         style="opacity:0.8;fill:#800000;filter:url(#filter3825)"
         id="g3025"
         transform="translate(108.99575,132.92801)">
        <g
           style="font-size:40px;font-style:normal;font-weight:normal;line-height:125%;letter-spacing:0px;word-spacing:0px;fill:#800000;fill-opacity:1;stroke:none;font-family:Sans"
           id="g3027">
          <path
             d="m 126.53125,880.79724 c -10.64061,-7.26562 -16.50001,-8.39062 -23.76562,-8.39062 -14.109366,0 -20.29688,8.81251 -20.29688,25.3125 0.234375,14.29686 7.218764,19.03125 21.70313,19.03125 7.26561,0 14.02617,-7.50937 21.85429,-14.77499 l 0.50508,24.71249 c -7.07812,4.82812 -14.62501,7.26562 -22.875,7.26562 -21.140604,0 -36.744131,-13.96877 -36.744131,-36.23437 0,-22.17186 14.150402,-35.34375 35.337881,-36.28125 8.20312,-0.375 14.43751,0.0469 24.28125,4.82812 l 0,14.53125"
             style="font-size:96px;font-variant:normal;font-stretch:normal;fill:#800000;font-family:OpenDyslexic;-inkscape-font-specification:OpenDyslexic"
             id="path3029"
             inkscape:connector-curvature="0"
             sodipodi:nodetypes="cscsccssccc" />
          <path
             d="m 139.89062,862.65662 59.76563,0 0,13.7285 -24.03632,-0.9375 6.32693,57.19337 -24.34685,0 4.30662,-57.19337 -22.01601,0.89063 0,-13.68163"
             style="font-size:96px;font-variant:normal;font-stretch:normal;fill:#800000;font-family:OpenDyslexic;-inkscape-font-specification:OpenDyslexic"
             id="path3031"
             inkscape:connector-curvature="0"
             sodipodi:nodetypes="ccccccccc" />
          <path
             d="m 216.10937,862.65662 39.89063,0 0,11.57812 -27.46875,0 c -0.14062,2.76562 -0.23438,5.20313 -0.375,7.6875 -0.1875,2.48437 -0.28125,5.01563 -0.42188,7.875 l 25.875,0 0,12.89063 -25.40625,0 1.39571,28.43789 -19.36874,1.51523 2.34375,-69.98437"
             style="font-size:96px;font-variant:normal;font-stretch:normal;fill:#800000;font-family:OpenDyslexic;-inkscape-font-specification:OpenDyslexic"
             id="path3033"
             inkscape:connector-curvature="0"
             sodipodi:nodetypes="cccccccccccc" />
        </g>
        <g
           style="font-size:40px;font-style:normal;font-weight:normal;line-height:125%;letter-spacing:0px;word-spacing:0px;fill:#800000;fill-opacity:1;stroke:none;font-family:Sans"
           id="g3035">
          <path
             d="m 115.5625,962.96417 -31.951172,0 c 0.328125,4.10156 1.599611,6.89063 3.363281,8.20313 2.337889,1.43554 6.152348,2.29687 10.294922,2.625 2.748049,0 5.085939,-0.082 7.669919,-0.28711 2.41992,-0.20508 5.45508,-1.3125 9.1875,-3.28125 l 2.73046,13.28906 c -5.90624,2.46094 -14.21484,3.77344 -19.998035,3.77344 -7.177727,-0.2461 -14.435155,-0.9047 -18.782807,-5.04727 -4.306636,-4.18359 -4.924224,-11.4 -4.924224,-18.65976 0.492187,-14.76561 8.695326,-24.36328 22.599609,-24.36328 6.152337,0.24609 10.869147,1.92773 14.150387,5.04492 l -0.041,0 c 3.28124,3.11718 5.16797,7.91602 5.70117,14.39648 l 0,4.30664 m -9.59766,-9.1875 c -0.61523,-1.47656 -1.72265,-3.1582 -2.99414,-4.67578 -1.80468,-2.09179 -4.224609,-3.11719 -7.218747,-3.11719 -3.52734,0 -6.316408,1.0254 -8.367187,3.11719 l 0,-0.041 c -1.599608,1.5996 -2.542969,3.1582 -2.91211,4.71679 l 21.492184,0"
             style="font-size:84px;fill:#800000;font-family:OpenDyslexic;-inkscape-font-specification:OpenDyslexic"
             id="path3037"
             inkscape:connector-curvature="0"
             sodipodi:nodetypes="cccccccccccccccccscccc" />
          <path
             d="m 125.48828,940.24152 11.71523,0 11.33555,28.99804 c 6.22638,-8.77633 6.29837,-21.79492 9.35626,-29.50312 l 13.73554,0.50508 -12.2297,45.9375 -20.632,0 -13.28088,-45.9375"
             style="font-size:84px;fill:#800000;font-family:OpenDyslexic;-inkscape-font-specification:OpenDyslexic"
             id="path3039"
             inkscape:connector-curvature="0"
             sodipodi:nodetypes="cccccccc" />
          <path
             d="m 220.11133,986.17902 -10.13086,0 0,-3.52735 c -3.28125,2.99414 -7.54688,4.63477 -13.24805,4.63477 -4.88085,0 -13.15897,-0.84844 -16.11209,-3.59648 -2.91211,-2.83008 -4.34766,-6.48048 -4.34766,-11.03321 0,-10.66405 11.43633,-16.62422 25.38163,-16.62422 l 8.28515,0 c -0.36914,-4.92187 -4.10157,-8.03906 -10.66406,-8.57226 -4.71679,0 -9.76172,1.55859 -15.29883,4.55273 l 0,-11.33086 c 5.98828,-2.33788 11.36134,-3.48632 16.11914,-3.48632 13.4121,0 20.01563,8.91094 20.01563,22.97929 l 0,26.00391 m -18.86719,-21.90235 c -4.88085,0 -8.03906,0.49219 -9.47461,1.51758 -1.27148,0.86133 -1.92773,2.33789 -1.96875,4.42969 0.28711,1.35351 0.98438,2.29687 2.00977,2.58398 1.55859,0.45117 3.56836,0.69727 5.98828,0.69727 6.19335,0 8.24414,-0.98439 8.24414,-9.1875 l 0,-0.041 -4.79883,0"
             style="font-size:84px;fill:#800000;font-family:OpenDyslexic;-inkscape-font-specification:OpenDyslexic"
             id="path3041"
             inkscape:connector-curvature="0"
             sodipodi:nodetypes="cccscssccccsscccccsscc" />
          <path
             d="m 241.52148,923.54816 9.72071,0 -1.01015,48.31368 5.76796,2.54569 0,11.77149 -15.29883,0 0.82031,-62.63086"
             style="font-size:84px;fill:#800000;font-family:OpenDyslexic;-inkscape-font-specification:OpenDyslexic"
             id="path3043"
             inkscape:connector-curvature="0"
             sodipodi:nodetypes="ccccccc" />
        </g>
      </g>
    </g>
    <g
       id="g3003"
       transform="translate(-33.45606,0.05235362)">
      <g
         style="font-size:40px;font-style:normal;font-weight:normal;line-height:125%;letter-spacing:0px;word-spacing:0px;fill:#000000;fill-opacity:1;stroke:none;font-family:Sans"
         id="text2985">
        <path
           d="m 126.53125,880.79724 c -10.64061,-7.26562 -16.50001,-8.39062 -23.76562,-8.39062 -14.109366,0 -20.29688,8.81251 -20.29688,25.3125 0.234375,14.29686 7.218764,19.03125 21.70313,19.03125 7.26561,0 14.02617,-7.50937 21.85429,-14.77499 l 0.50508,24.71249 c -7.07812,4.82812 -14.62501,7.26562 -22.875,7.26562 -21.140604,0 -36.744131,-13.96877 -36.744131,-36.23437 0,-22.17186 14.150402,-35.34375 35.337881,-36.28125 8.20312,-0.375 14.43751,0.0469 24.28125,4.82812 l 0,14.53125"
           style="font-size:96px;font-variant:normal;font-stretch:normal;font-family:OpenDyslexic;-inkscape-font-specification:OpenDyslexic"
           id="path3010"
           inkscape:connector-curvature="0"
           sodipodi:nodetypes="cscsccssccc" />
        <path
           d="m 139.89062,862.65662 59.76563,0 0,13.7285 -24.03632,-0.9375 6.32693,57.19337 -24.34685,0 4.30662,-57.19337 -22.01601,0.89063 0,-13.68163"
           style="font-size:96px;font-variant:normal;font-stretch:normal;font-family:OpenDyslexic;-inkscape-font-specification:OpenDyslexic"
           id="path3012"
           inkscape:connector-curvature="0"
           sodipodi:nodetypes="ccccccccc" />
        <path
           d="m 216.10937,862.65662 39.89063,0 0,11.57812 -27.46875,0 c -0.14062,2.76562 -0.23438,5.20313 -0.375,7.6875 -0.1875,2.48437 -0.28125,5.01563 -0.42188,7.875 l 25.875,0 0,12.89063 -25.40625,0 1.39571,28.43789 -19.36874,1.51523 2.34375,-69.98437"
           style="font-size:96px;font-variant:normal;font-stretch:normal;font-family:OpenDyslexic;-inkscape-font-specification:OpenDyslexic"
           id="path3014"
           inkscape:connector-curvature="0"
           sodipodi:nodetypes="cccccccccccc" />
      </g>
      <g
         style="font-size:40px;font-style:normal;font-weight:normal;line-height:125%;letter-spacing:0px;word-spacing:0px;fill:#000000;fill-opacity:1;stroke:none;font-family:Sans"
         id="text2989">
        <path
           d="m 115.5625,962.96417 -31.951172,0 c 0.328125,4.10156 1.599611,6.89063 3.363281,8.20313 2.337889,1.43554 6.152348,2.29687 10.294922,2.625 2.748049,0 5.085939,-0.082 7.669919,-0.28711 2.41992,-0.20508 5.45508,-1.3125 9.1875,-3.28125 l 2.73046,13.28906 c -5.90624,2.46094 -14.21484,3.77344 -19.998035,3.77344 -7.177727,-0.2461 -14.435155,-0.9047 -18.782807,-5.04727 -4.306636,-4.18359 -4.924224,-11.4 -4.924224,-18.65976 0.492187,-14.76561 8.695326,-24.36328 22.599609,-24.36328 6.152337,0.24609 10.869147,1.92773 14.150387,5.04492 l -0.041,0 c 3.28124,3.11718 5.16797,7.91602 5.70117,14.39648 l 0,4.30664 m -9.59766,-9.1875 c -0.61523,-1.47656 -1.72265,-3.1582 -2.99414,-4.67578 -1.80468,-2.09179 -4.224609,-3.11719 -7.218747,-3.11719 -3.52734,0 -6.316408,1.0254 -8.367187,3.11719 l 0,-0.041 c -1.599608,1.5996 -2.542969,3.1582 -2.91211,4.71679 l 21.492184,0"
           style="font-size:84px;font-family:OpenDyslexic;-inkscape-font-specification:OpenDyslexic"
           id="path3017"
           inkscape:connector-curvature="0"
           sodipodi:nodetypes="cccccccccccccccccscccc" />
        <path
           d="m 125.48828,940.24152 11.71523,0 11.33555,28.99804 c 6.22638,-8.77633 6.29837,-21.79492 9.35626,-29.50312 l 13.73554,0.50508 -12.2297,45.9375 -20.632,0 -13.28088,-45.9375"
           style="font-size:84px;font-family:OpenDyslexic;-inkscape-font-specification:OpenDyslexic"
           id="path3019"
           inkscape:connector-curvature="0"
           sodipodi:nodetypes="cccccccc" />
        <path
           d="m 220.11133,986.17902 -10.13086,0 0,-3.52735 c -3.28125,2.99414 -7.54688,4.63477 -13.24805,4.63477 -4.88085,0 -13.15897,-0.84844 -16.11209,-3.59648 -2.91211,-2.83008 -4.34766,-6.48048 -4.34766,-11.03321 0,-10.66405 11.43633,-16.62422 25.38163,-16.62422 l 8.28515,0 c -0.36914,-4.92187 -4.10157,-8.03906 -10.66406,-8.57226 -4.71679,0 -9.76172,1.55859 -15.29883,4.55273 l 0,-11.33086 c 5.98828,-2.33788 11.36134,-3.48632 16.11914,-3.48632 13.4121,0 20.01563,8.91094 20.01563,22.97929 l 0,26.00391 m -18.86719,-21.90235 c -4.88085,0 -8.03906,0.49219 -9.47461,1.51758 -1.27148,0.86133 -1.92773,2.33789 -1.96875,4.42969 0.28711,1.35351 0.98438,2.29687 2.00977,2.58398 1.55859,0.45117 3.56836,0.69727 5.98828,0.69727 6.19335,0 8.24414,-0.98439 8.24414,-9.1875 l 0,-0.041 -4.79883,0"
           style="font-size:84px;font-family:OpenDyslexic;-inkscape-font-specification:OpenDyslexic"
           id="path3021"
           inkscape:connector-curvature="0"
           sodipodi:nodetypes="cccscssccccsscccccsscc" />
        <path
           d="m 241.52148,923.54816 9.72071,0 -1.01015,48.31368 5.76796,2.54569 0,11.77149 -15.29883,0 0.82031,-62.63086"
           style="font-size:84px;font-family:OpenDyslexic;-inkscape-font-specification:OpenDyslexic"
           id="path3023"
           inkscape:connector-curvature="0"
           sodipodi:nodetypes="ccccccc" />
      </g>
    </g>
  </g>
</svg>
